<svg id="visual" viewBox="0 0 900 600" width="900" height="600" xmlns="http://www.w3.org/2000/svg" xmlns:xlink="http://www.w3.org/1999/xlink" version="1.1"><path d="M0 327L9.3 322.5C18.7 318 37.3 309 56.2 317.8C75 326.7 94 353.3 112.8 367C131.7 380.7 150.3 381.3 169 384.3C187.7 387.3 206.3 392.7 225 386C243.7 379.3 262.3 360.7 281.2 345.5C300 330.3 319 318.7 337.8 326.7C356.7 334.7 375.3 362.3 394 374.5C412.7 386.7 431.3 383.3 450 371.7C468.7 360 487.3 340 506.2 335C525 330 544 340 562.8 338.7C581.7 337.3 600.3 324.7 619 324.5C637.7 324.3 656.3 336.7 675 340C693.7 343.3 712.3 337.7 731.2 330C750 322.3 769 312.7 787.8 317.2C806.7 321.7 825.3 340.3 844 340.3C862.7 340.3 881.3 321.7 890.7 312.3L900 303L900 601L890.7 601C881.3 601 862.7 601 844 601C825.3 601 806.7 601 787.8 601C769 601 750 601 731.2 601C712.3 601 693.7 601 675 601C656.3 601 637.7 601 619 601C600.3 601 581.7 601 562.8 601C544 601 525 601 506.2 601C487.3 601 468.7 601 450 601C431.3 601 412.7 601 394 601C375.3 601 356.7 601 337.8 601C319 601 300 601 281.2 601C262.3 601 243.7 601 225 601C206.3 601 187.7 601 169 601C150.3 601 131.7 601 112.8 601C94 601 75 601 56.2 601C37.3 601 18.7 601 9.3 601L0 601Z" fill="#e64398"></path><path d="M0 431L9.3 420.5C18.7 410 37.3 389 56.2 387.7C75 386.3 94 404.7 112.8 408.7C131.7 412.7 150.3 402.3 169 393.3C187.7 384.3 206.3 376.7 225 377.8C243.7 379 262.3 389 281.2 397.5C300 406 319 413 337.8 413.5C356.7 414 375.3 408 394 407.7C412.7 407.3 431.3 412.7 450 417.2C468.7 421.7 487.3 425.3 506.2 419.7C525 414 544 399 562.8 396.2C581.7 393.3 600.3 402.7 619 403.5C637.7 404.3 656.3 396.7 675 390.7C693.7 384.7 712.3 380.3 731.2 386.8C750 393.3 769 410.7 787.8 416C806.7 421.3 825.3 414.7 844 402.7C862.7 390.7 881.3 373.3 890.7 364.7L900 356L900 601L890.7 601C881.3 601 862.7 601 844 601C825.3 601 806.7 601 787.8 601C769 601 750 601 731.2 601C712.3 601 693.7 601 675 601C656.3 601 637.7 601 619 601C600.3 601 581.7 601 562.8 601C544 601 525 601 506.2 601C487.3 601 468.7 601 450 601C431.3 601 412.7 601 394 601C375.3 601 356.7 601 337.8 601C319 601 300 601 281.2 601C262.3 601 243.7 601 225 601C206.3 601 187.7 601 169 601C150.3 601 131.7 601 112.8 601C94 601 75 601 56.2 601C37.3 601 18.7 601 9.3 601L0 601Z" fill="#c382c2"></path><path d="M0 464L9.3 453.7C18.7 443.3 37.3 422.7 56.2 422.2C75 421.7 94 441.3 112.8 443.8C131.7 446.3 150.3 431.7 169 423.2C187.7 414.7 206.3 412.3 225 422.8C243.7 433.3 262.3 456.7 281.2 470.2C300 483.7 319 487.3 337.8 476C356.7 464.7 375.3 438.3 394 436C412.7 433.7 431.3 455.3 450 454.8C468.7 454.3 487.3 431.7 506.2 430C525 428.3 544 447.7 562.8 448.7C581.7 449.7 600.3 432.3 619 431.5C637.7 430.7 656.3 446.3 675 447.3C693.7 448.3 712.3 434.7 731.2 426.7C750 418.7 769 416.3 787.8 425.2C806.7 434 825.3 454 844 465.3C862.7 476.7 881.3 479.3 890.7 480.7L900 482L900 601L890.7 601C881.3 601 862.7 601 844 601C825.3 601 806.7 601 787.8 601C769 601 750 601 731.2 601C712.3 601 693.7 601 675 601C656.3 601 637.7 601 619 601C600.3 601 581.7 601 562.8 601C544 601 525 601 506.2 601C487.3 601 468.7 601 450 601C431.3 601 412.7 601 394 601C375.3 601 356.7 601 337.8 601C319 601 300 601 281.2 601C262.3 601 243.7 601 225 601C206.3 601 187.7 601 169 601C150.3 601 131.7 601 112.8 601C94 601 75 601 56.2 601C37.3 601 18.7 601 9.3 601L0 601Z" fill="#b39bc8"></path><path d="M0 548L9.3 546.3C18.7 544.7 37.3 541.3 56.2 535C75 528.7 94 519.3 112.8 515.8C131.7 512.3 150.3 514.7 169 510C187.7 505.3 206.3 493.7 225 495C243.7 496.3 262.3 510.7 281.2 515C300 519.3 319 513.7 337.8 510C356.7 506.3 375.3 504.7 394 505.5C412.7 506.3 431.3 509.7 450 504.5C468.7 499.3 487.3 485.7 506.2 478C525 470.3 544 468.7 562.8 471.2C581.7 473.7 600.3 480.3 619 486.3C637.7 492.3 656.3 497.7 675 500.2C693.7 502.7 712.3 502.3 731.2 494.3C750 486.3 769 470.7 787.8 467.5C806.7 464.3 825.3 473.7 844 480C862.7 486.3 881.3 489.7 890.7 491.3L900 493L900 601L890.7 601C881.3 601 862.7 601 844 601C825.3 601 806.7 601 787.8 601C769 601 750 601 731.2 601C712.3 601 693.7 601 675 601C656.3 601 637.7 601 619 601C600.3 601 581.7 601 562.8 601C544 601 525 601 506.2 601C487.3 601 468.7 601 450 601C431.3 601 412.7 601 394 601C375.3 601 356.7 601 337.8 601C319 601 300 601 281.2 601C262.3 601 243.7 601 225 601C206.3 601 187.7 601 169 601C150.3 601 131.7 601 112.8 601C94 601 75 601 56.2 601C37.3 601 18.7 601 9.3 601L0 601Z" fill="#c382c2"></path><path d="M0 518L9.3 530.7C18.7 543.3 37.3 568.7 56.2 581.7C75 594.7 94 595.3 112.8 587.7C131.7 580 150.3 564 169 557C187.7 550 206.3 552 225 556.7C243.7 561.3 262.3 568.7 281.2 559.7C300 550.7 319 525.3 337.8 523.8C356.7 522.3 375.3 544.7 394 556C412.7 567.3 431.3 567.7 450 564.8C468.7 562 487.3 556 506.2 547.8C525 539.7 544 529.3 562.8 525C581.7 520.7 600.3 522.3 619 521.8C637.7 521.3 656.3 518.7 675 529.5C693.7 540.3 712.3 564.7 731.2 566.2C750 567.7 769 546.3 787.8 540.3C806.7 534.3 825.3 543.7 844 543.5C862.7 543.3 881.3 533.7 890.7 528.8L900 524L900 601L890.7 601C881.3 601 862.7 601 844 601C825.3 601 806.7 601 787.8 601C769 601 750 601 731.2 601C712.3 601 693.7 601 675 601C656.3 601 637.7 601 619 601C600.3 601 581.7 601 562.8 601C544 601 525 601 506.2 601C487.3 601 468.7 601 450 601C431.3 601 412.7 601 394 601C375.3 601 356.7 601 337.8 601C319 601 300 601 281.2 601C262.3 601 243.7 601 225 601C206.3 601 187.7 601 169 601C150.3 601 131.7 601 112.8 601C94 601 75 601 56.2 601C37.3 601 18.7 601 9.3 601L0 601Z" fill="#e64398"></path></svg>